<svg width="90" height="90" viewBox="0 0 90 90" fill="none" xmlns="http://www.w3.org/2000/svg">
<g clip-path="url(#clip0_10_2)">
<path d="M86.25 3.75V18.75C86.25 22.8938 82.8938 26.25 78.75 26.25H63.75C61.68 26.25 60 24.57 60 22.5C60 20.43 61.68 18.75 63.75 18.75H71.7413C64.7813 11.6175 55.2825 7.5 45 7.5C24.3225 7.5 7.5 24.3225 7.5 45C7.5 47.07 5.82 48.75 3.75 48.75C1.68 48.75 0 47.07 0 45C0 20.1862 20.1862 0 45 0C58.1887 0 70.2863 5.65875 78.75 15.3413V3.75C78.75 1.68 80.43 0 82.5 0C84.57 0 86.25 1.68 86.25 3.75ZM86.25 41.25C84.18 41.25 82.5 42.93 82.5 45C82.5 65.6775 65.6775 82.5 45 82.5C34.7175 82.5 25.2187 78.3825 18.2587 71.25H26.25C28.32 71.25 30 69.57 30 67.5C30 65.43 28.32 63.75 26.25 63.75H11.25C7.10625 63.75 3.75 67.1062 3.75 71.25V86.25C3.75 88.32 5.43 90 7.5 90C9.57 90 11.25 88.32 11.25 86.25V74.6588C19.7137 84.3413 31.8113 90 45 90C69.8138 90 90 69.8138 90 45C90 42.93 88.32 41.25 86.25 41.25ZM75 45C75 61.5675 61.5675 75 45 75C41.76 75 38.6438 74.4712 35.7225 73.5187C36.8363 71.775 37.5 69.7163 37.5 67.5C37.5 66.7088 37.4138 65.9363 37.2563 65.19C37.1325 64.9763 36.96 64.8 36.855 64.575C34.2038 63.7387 31.8188 62.1525 29.9925 59.955C29.1263 58.9087 28.6088 57.7013 28.29 56.4563C27.6263 56.3325 26.9475 56.25 26.25 56.25H17.2012C15.7912 52.7738 15 48.9825 15 45C15 28.4325 28.4325 15 45 15C48.24 15 51.3562 15.5287 54.2775 16.4812C53.1637 18.225 52.5 20.2837 52.5 22.5C52.5 23.2912 52.5862 24.0638 52.7437 24.81C52.8675 25.0238 53.04 25.2 53.145 25.425C55.7962 26.2613 58.1813 27.8475 60.0075 30.045C60.8738 31.0913 61.3912 32.2987 61.71 33.5437C62.3737 33.6675 63.0525 33.75 63.75 33.75H72.7988C74.2088 37.2262 75 41.0175 75 45ZM50.8238 43.1062L40.3537 41.01C39.2137 40.7812 38.4263 39.66 38.67 38.4675C38.8763 37.4475 39.8288 36.75 40.8713 36.75H48.7538C49.515 36.75 50.205 37.0763 50.685 37.5975C51.2625 38.2238 52.0388 38.625 52.89 38.625H53.175C55.6275 38.625 56.9625 35.7638 55.395 33.8775C53.8125 31.9688 51.4237 30.7538 48.7575 30.7538H48.0075V29.2538C48.0075 27.5963 46.665 26.2537 45.0075 26.2537C43.35 26.2537 42.0075 27.5963 42.0075 29.2538V30.7538H40.9575C36.8662 30.7538 33.285 33.7013 32.7112 37.7513C32.1 42.0938 35.01 46.0612 39.18 46.8975L49.6463 48.9937C50.7863 49.2262 51.5737 50.34 51.3375 51.5325C51.135 52.5562 50.1825 53.2575 49.14 53.2575H41.2538C40.4925 53.2575 39.8025 52.9312 39.3225 52.41C38.745 51.7837 37.9687 51.3825 37.1175 51.3825H36.8325C34.38 51.3825 33.045 54.2438 34.6125 56.13C36.195 58.0388 38.5837 59.2537 41.25 59.2537H42V60.7538C42 62.4113 43.3425 63.7537 45 63.7537C46.6575 63.7537 48 62.4113 48 60.7538V59.2537H49.05C53.1412 59.2537 56.7225 56.31 57.2963 52.26C57.9113 47.9175 54.9975 43.9462 50.8275 43.1137L50.8238 43.1062Z" fill="#FFC400"/>
</g>
<defs>
<clipPath id="clip0_10_2">
<rect width="90" height="90" fill="white"/>
</clipPath>
</defs>
</svg>
